<svg version="1.1" id="email-svg" xmlns="http://www.w3.org/2000/svg" x="0" y="0" viewBox="0 0 512 384" xml:space="preserve"><path d="M394.7 149.3c-64.7 0-117.3 52.6-117.3 117.3S330 384 394.7 384c20.6 0 40.9-5.4 58.7-15.7 5.1-2.9 6.8-9.5 3.9-14.6s-9.5-6.9-14.6-3.9c-14.5 8.4-31.1 12.8-48 12.8-52.9 0-96-43.1-96-96s43.1-96 96-96 96 43.1 96 96v10.7c0 11.8-9.6 21.3-21.3 21.3s-21.3-9.6-21.3-21.3v-42.7c0-5.9-4.8-10.7-10.7-10.7-2.9 0-5.4 1.2-7.4 3-9.4-8.4-21.7-13.7-35.3-13.7-29.4 0-53.3 23.9-53.3 53.3s23.9 53.3 53.3 53.3c15.9 0 30-7.1 39.8-18.2 7.7 11 20.4 18.2 34.9 18.2 23.5 0 42.7-19.1 42.7-42.7v-10.7c-.1-64.4-52.7-117.1-117.4-117.1zm0 149.4c-17.6 0-32-14.4-32-32s14.4-32 32-32 32 14.4 32 32-14.4 32-32 32zM17.7 24.7l175.7 143c.6.5 1.2.9 1.9 1.2 2.3 1.2 4.8 1.8 7.4 1.8 2.7 0 5.4-.7 9.4-3.1L387.6 24.7c2.6-2.1 4.1-5.3 3.9-8.7s-1.8-6.4-4.6-8.4c-7.2-5-15.6-7.7-24.3-7.7h-320c-8.7 0-17.1 2.6-24.3 7.7-2.8 1.9-4.4 5-4.6 8.4-.1 3.4 1.4 6.6 4 8.7z"/><path d="M256 266.7c0-76.5 62.2-138.7 138.7-138.7 5.9 0 10.7-4.8 10.7-10.7V60.2c0-4.1-2.4-7.9-6.1-9.6-3.7-1.7-8.1-1.2-11.3 1.4L224.3 185.1l-1.9 1.2c-12.3 7.6-27.4 7.9-41.3-1.2L17.4 52c-3.2-2.6-7.6-3.1-11.3-1.4C2.4 52.4 0 56.1 0 60.2V256c0 23.5 19.1 42.7 42.7 42.7H247c3.1 0 6-1.3 8.1-3.7 2-2.3 2.9-5.4 2.5-8.5-1.1-7.6-1.6-13.9-1.6-19.8z"/></svg>