<svg version="1.1" id="eye-svg" xmlns="http://www.w3.org/2000/svg" x="0" y="0" viewBox="0 0 258.3 172.2" xml:space="preserve"><path d="M258.3 86.1c0 1.9-.7 4.8-1.6 6.5-24.3 47.4-72.5 79.5-127.6 79.5S25.9 140.1 1.6 92.6C.7 90.9 0 88 0 86.1c0-1.9.7-4.8 1.6-6.5C25.9 32.1 74 0 129.1 0s103.3 32.1 127.6 79.5c.9 1.7 1.6 4.7 1.6 6.6zm-22.5 0c-21.9-39.9-62.4-64.6-106.7-64.6S44.3 46.2 22.5 86.1c21.9 39.9 62.4 64.6 106.7 64.6 44.2 0 84.7-24.7 106.6-64.6zM129.3 35.9c27.6 0 50.1 22.4 50.1 50.1 0 27.6-22.4 50.1-50.1 50.1S79.2 113.6 79.2 86c0-3.9.9-10.1 2-13.9 3.1 1.8 8.5 3.2 12.1 3.2 13.9 0 25.1-11.2 25.1-25.1 0-3.6-1.5-9-3.2-12.1 3.8-1.2 10.1-2.2 14-2.2h.1z" fill="#ee4f10"/></svg>