<svg version="1.1" id="pinterest-svg" xmlns="http://www.w3.org/2000/svg" x="0" y="0" viewBox="0 0 30 30" xml:space="preserve"><path d="M15 30c-1.5 0-3-.2-4.4-.7.6-1 1.5-2.6 1.9-3.9.2-.7.9-3.6.9-3.6.5.9 1.9 1.7 3.4 1.7 4.5 0 7.8-4.2 7.8-9.3 0-5-4-8.7-9.2-8.7-6.5 0-9.9 4.3-9.9 9.1 0 2.2 1.2 4.9 3 5.8.3.1.4.1.5-.2 0-.2.3-1.2.4-1.6 0-.2 0-.3-.1-.4-.6-.8-1.1-2.1-1.1-3.4 0-3.3 2.5-6.5 6.8-6.5 3.7 0 6.3 2.5 6.3 6.1 0 4.1-2.1 6.9-4.7 6.9-1.5 0-2.6-1.2-2.2-2.7.4-1.8 1.2-3.7 1.2-5 0-1.1-.6-2.1-1.9-2.1-1.5 0-2.7 1.6-2.7 3.6 0 1.3.4 2.2.4 2.2s-1.5 6.3-1.8 7.5c-.3 1.2-.2 3-.1 4.2C4 26.8 0 21.4 0 15 0 6.7 6.7 0 15 0s15 6.7 15 15-6.7 15-15 15z"/></svg>