<svg version="1.1" id="share-svg" xmlns="http://www.w3.org/2000/svg" x="0" y="0" viewBox="0 0 209.9 239.9" xml:space="preserve"><path d="M209.9 194.9c0 24.8-20.1 45-45 45s-45-20.1-45-45c0-2.7.5-7.1 1.1-9.8l-48-30c-7.7 6.1-17.4 9.8-28 9.8-24.8 0-45-20.1-45-45s20.1-45 45-45c10.6 0 20.3 3.7 28 9.8l48-30c-.7-3.1-1.1-6.4-1.1-9.8 0-24.8 20.1-45 45-45s45 20.1 45 45-20.1 45-45 45c-10.6 0-20.3-3.7-28-9.8l-48 30c.6 2.7 1.1 7 1.1 9.8 0 2.7-.5 7.1-1.1 9.8l48 30c7.7-6.1 17.4-9.8 28-9.8 24.9 0 45 20.2 45 45z" fill="#ee4f10"/></svg>