<svg version="1.1" id="twitter-svg" xmlns="http://www.w3.org/2000/svg" x="0" y="0" viewBox="0 0 31 25.2" xml:space="preserve"><path d="M27.8 7.1c0 8.4-6.4 18.1-18.1 18.1-3.6 0-6.9-1-9.7-2.8.5.1 1 .1 1.5.1 3 0 5.7-1 7.9-2.7-2.8-.1-5.1-1.9-5.9-4.4.4.1.8.1 1.2.1.6 0 1.1-.1 1.7-.2-3-.7-5.1-3.3-5.1-6.4v-.1c.8.5 1.8.8 2.9.8-1.8-1.1-2.9-3-2.9-5.2 0-1.2.3-2.3.9-3.2C5.3 5 10 7.5 15.2 7.8c-.1-.5-.2-1-.2-1.5C15 2.8 17.8 0 21.3 0c1.8 0 3.5.8 4.6 2 1.4-.3 2.8-.8 4-1.5-.5 1.5-1.5 2.7-2.8 3.5 1.3-.1 2.5-.5 3.7-1-.9 1.3-1.9 2.4-3.2 3.3.2.2.2.5.2.8z"/></svg>